<svg xmlns="http://www.w3.org/2000/svg" viewBox="0 0 192 192">
  <rect width="192" height="192" fill="#0A0A0C"/>
  <g stroke="#F3F1EA" stroke-linecap="round" stroke-linejoin="round" fill="none">
    <!-- Torre -->
    <line x1="66" y1="180" x2="87" y2="78" stroke-width="7.5" />
    <line x1="126" y1="180" x2="105" y2="78" stroke-width="7.5" />
    <line x1="69" y1="156" x2="123" y2="156" stroke-width="3" />
    <line x1="74" y1="132" x2="118" y2="132" stroke-width="3" />
    <line x1="79" y1="108" x2="113" y2="108" stroke-width="3" />
    <!-- Plataforma -->
    <line x1="84" y1="75" x2="108" y2="75" stroke-width="8" />
    <!-- Cola -->
    <line x1="96" y1="51" x2="150" y2="51" stroke-width="4" />
    <path d="M144 36 L144 66 L162 51 Z" fill="#F3F1EA" stroke="none" opacity="0.7" />
    <!-- Rotor -->
    <circle cx="96" cy="51" r="27" stroke-width="5" />
    <line x1="96" y1="51" x2="123" y2="51" stroke-width="3.5" />
    <line x1="96" y1="51" x2="119.08" y2="68.56" stroke-width="3.5" />
    <line x1="96" y1="51" x2="109.5" y2="75.39" stroke-width="3.5" />
    <line x1="96" y1="51" x2="96" y2="78" stroke-width="3.5" />
    <line x1="96" y1="51" x2="82.5" y2="75.39" stroke-width="3.5" />
    <line x1="96" y1="51" x2="72.92" y2="68.56" stroke-width="3.5" />
    <line x1="96" y1="51" x2="69" y2="51" stroke-width="3.5" />
    <line x1="96" y1="51" x2="72.92" y2="33.44" stroke-width="3.5" />
    <line x1="96" y1="51" x2="82.5" y2="26.61" stroke-width="3.5" />
    <line x1="96" y1="51" x2="96" y2="24" stroke-width="3.5" />
    <line x1="96" y1="51" x2="109.5" y2="26.61" stroke-width="3.5" />
    <line x1="96" y1="51" x2="119.08" y2="33.44" stroke-width="3.5" />
    <!-- Cubo -->
    <circle cx="96" cy="51" r="6" fill="#F3F1EA" stroke="none" />
  </g>
</svg>
