<svg xmlns="http://www.w3.org/2000/svg" viewBox="0 0 64 64">
  <rect width="64" height="64" fill="#0A0A0C"/>
  <g stroke="#F3F1EA" stroke-linecap="round" stroke-linejoin="round" fill="none">
    <!-- Torre -->
    <line x1="22" y1="60" x2="29" y2="26" stroke-width="2.6" />
    <line x1="42" y1="60" x2="35" y2="26" stroke-width="2.6" />
    <line x1="23" y1="52" x2="41" y2="52" stroke-width="1" />
    <line x1="24.6" y1="44" x2="39.4" y2="44" stroke-width="1" />
    <line x1="26.2" y1="36" x2="37.8" y2="36" stroke-width="1" />
    <!-- Plataforma -->
    <line x1="28" y1="25" x2="36" y2="25" stroke-width="3" />
    <!-- Cola -->
    <line x1="32" y1="17" x2="50" y2="17" stroke-width="1.4" />
    <path d="M48 12 L48 22 L54 17 Z" fill="#F3F1EA" stroke="none" opacity="0.7" />
    <!-- Rotor (estático en favicon) -->
    <circle cx="32" cy="17" r="9" stroke-width="1.8" />
    <line x1="32" y1="17" x2="41" y2="17" stroke-width="1.3" />
    <line x1="32" y1="17" x2="38.36" y2="22.85" stroke-width="1.3" />
    <line x1="32" y1="17" x2="35.5" y2="24.79" stroke-width="1.3" />
    <line x1="32" y1="17" x2="32" y2="26" stroke-width="1.3" />
    <line x1="32" y1="17" x2="28.5" y2="24.79" stroke-width="1.3" />
    <line x1="32" y1="17" x2="25.64" y2="22.85" stroke-width="1.3" />
    <line x1="32" y1="17" x2="23" y2="17" stroke-width="1.3" />
    <line x1="32" y1="17" x2="25.64" y2="11.15" stroke-width="1.3" />
    <line x1="32" y1="17" x2="28.5" y2="9.21" stroke-width="1.3" />
    <line x1="32" y1="17" x2="32" y2="8" stroke-width="1.3" />
    <line x1="32" y1="17" x2="35.5" y2="9.21" stroke-width="1.3" />
    <line x1="32" y1="17" x2="38.36" y2="11.15" stroke-width="1.3" />
    <!-- Cubo -->
    <circle cx="32" cy="17" r="2" fill="#F3F1EA" stroke="none" />
  </g>
</svg>
