<svg xmlns="http://www.w3.org/2000/svg" viewBox="0 0 64 64">
  <rect width="64" height="64" fill="#0A0A0C"/>
  <g stroke="#F3F1EA" stroke-width="2.6" stroke-linecap="round" stroke-linejoin="round" fill="none">
    <path d="M20 58 L21.6 27 L42.4 27 L44 58 Z" />
    <path d="M28 58 L28 51 Q32 48 36 51 L36 58 Z" />
    <line x1="22.8" y1="38" x2="41.2" y2="38" stroke-width="1" />
    <line x1="21.8" y1="46" x2="42.2" y2="46" stroke-width="1" />
    <line x1="21.2" y1="54" x2="42.8" y2="54" stroke-width="1" />
    <path d="M23 27 L24 19 L40 19 L41 27 Z" />
    <circle cx="32" cy="19" r="3.2" />
    <g transform="rotate(0 32 19)">
      <line x1="32" y1="19" x2="32" y2="5" stroke-width="1.8" />
      <path d="M29.6 7.5 L34.4 7.5 L33.2 16 L30.8 16 Z" fill="#F3F1EA" stroke="none" opacity="0.85" />
    </g>
    <g transform="rotate(90 32 19)">
      <line x1="32" y1="19" x2="32" y2="5" stroke-width="1.8" />
      <path d="M29.6 7.5 L34.4 7.5 L33.2 16 L30.8 16 Z" fill="#F3F1EA" stroke="none" opacity="0.85" />
    </g>
    <g transform="rotate(180 32 19)">
      <line x1="32" y1="19" x2="32" y2="5" stroke-width="1.8" />
      <path d="M29.6 7.5 L34.4 7.5 L33.2 16 L30.8 16 Z" fill="#F3F1EA" stroke="none" opacity="0.85" />
    </g>
    <g transform="rotate(270 32 19)">
      <line x1="32" y1="19" x2="32" y2="5" stroke-width="1.8" />
      <path d="M29.6 7.5 L34.4 7.5 L33.2 16 L30.8 16 Z" fill="#F3F1EA" stroke="none" opacity="0.85" />
    </g>
  </g>
</svg>
