<svg xmlns="http://www.w3.org/2000/svg" viewBox="0 0 1200 630">
  <rect width="1200" height="630" fill="#FFFFFF"/>
  <g stroke="#1A1A1A" stroke-width="8" stroke-linecap="round" stroke-linejoin="round" fill="none" transform="translate(540,190) scale(2.5)">
    <path d="M20 58 L16 26 L48 26 L44 58 Z" />
    <path d="M14 26 L32 12 L50 26 Z" />
    <path d="M28 58 L28 44 Q28 40 32 40 Q36 40 36 44 L36 58" />
    <circle cx="32" cy="33" r="2.5" />
    <line x1="0" y1="13" x2="64" y2="13" />
    <line x1="32" y1="-8" x2="32" y2="32" />
    <line x1="0" y1="8" x2="64" y2="8" stroke-width="3" />
    <line x1="0" y1="18" x2="64" y2="18" stroke-width="3" />
    <line x1="25" y1="-8" x2="25" y2="32" stroke-width="3" />
    <line x1="39" y1="-8" x2="39" y2="32" stroke-width="3" />
  </g>
  <text x="600" y="520" font-family="Space Grotesk, sans-serif" font-size="28" font-weight="600" fill="#666666" text-anchor="middle" letter-spacing="4">INTELIGENCIA PERSONAL</text>
</svg>
